{
  "source": "C:\\Users\\Peter\\Desktop\\stuff\\MIUN\\quantitative_research\\video_compression\\videos\\BVI-HD\\BVI-HD_CDVL_videos\\ORIG\\RockWave_1920x1080_30fps.mp4",
  "output": "C:\\Users\\Peter\\Desktop\\stuff\\MIUN\\quantitative_research\\video_compression\\compressed_videos\\BVI-HD\\av1\\3\\RockWave_1920x1080_30fps_av1.mkv",
  "codec": "av1",
  "ok": "Input #0, mov,mp4,m4a,3gp,3g2,mj2, from 'C:\\Users\\Peter\\Desktop\\stuff\\MIUN\\quantitative_research\\video_compression\\videos\\BVI-HD\\BVI-HD_CDVL_videos\\ORIG\\RockWave_1920x1080_30fps.mp4':\n  Metadata:\n    major_brand     : isom\n    minor_version   : 512\n    compatible_brands: isomiso2avc1mp41\n    encoder         : Lavf54.28.101\n  Duration: 00:00:05.00, start: 0.000000, bitrate: 303557 kb/s\n  Stream #0:0[0x1](und): Video: h264 (High 4:4:4 Predictive) (avc1 / 0x31637661), yuv420p(progressive), 1920x1080, 303553 kb/s, 30 fps, 30 tbr, 30 tbn (default)\n    Metadata:\n      handler_name    : VideoHandler\n      vendor_id       : [0][0][0][0]\n[out#0/matroska @ 000002abd66d9700] Codec AVOption b:a (set bitrate (in bits/s)) has not been used for any stream. The most likely reason is either wrong type (e.g. a video option with no video streams) or that it is a private option of some decoder which was not actually used for any stream.\nStream mapping:\n  Stream #0:0 -> #0:0 (h264 (native) -> av1 (libsvtav1))\nPress [q] to stop, [?] for help\nSvt[info]: -------------------------------------------\nSvt[info]: SVT [version]:\tSVT-AV1 Encoder Lib v3.1.0-19-g6ecfe8ec\nSvt[info]: SVT [build]  :\tGCC 15.2.0\t 64 bit\nSvt[info]: LIB Build date: Aug 17 2025 11:37:13\nSvt[info]: -------------------------------------------\nSvt[info]: Level of Parallelism: 5\nSvt[info]: Number of PPCS 93\nSvt[info]: [asm level on system : up to avx2]\nSvt[info]: [asm level selected : up to avx2]\nSvt[info]: -------------------------------------------\nSvt[info]: SVT [config]: main profile\ttier (auto)\tlevel (auto)\nSvt[info]: SVT [config]: width / height / fps numerator / fps denominator \t\t: 1920 / 1080 / 30 / 1\nSvt[info]: SVT [config]: bit-depth / color format \t\t\t\t\t: 8 / YUV420\nSvt[info]: SVT [config]: preset / tune / pred struct \t\t\t\t\t: 4 / PSNR / random access\nSvt[info]: SVT [config]: gop size / mini-gop size / key-frame type \t\t\t: 161 / 16 / key frame\nSvt[info]: SVT [config]: BRC mode / target bitrate (kbps)\t\t\t\t: VBR / 3000 \nSvt[info]: SVT [config]: AQ mode / Variance Boost \t\t\t\t\t: 2 / 0\nSvt[info]: SVT [config]: sharpness / luminance-based QP bias \t\t\t\t: 0 / 0\nSvt[info]: SVT [config]: QP scale compress strength \t\t\t\t\t: 0\nSvt[info]: -------------------------------------------\nOutput #0, matroska, to 'C:\\Users\\Peter\\Desktop\\stuff\\MIUN\\quantitative_research\\video_compression\\compressed_videos\\BVI-HD\\av1\\3\\RockWave_1920x1080_30fps_av1.mkv':\n  Metadata:\n    major_brand     : isom\n    minor_version   : 512\n    compatible_brands: isomiso2avc1mp41\n    encoder         : Lavf62.3.100\n  Stream #0:0(und): Video: av1 (AV01 / 0x31305641), yuv420p(tv, progressive), 1920x1080, q=2-31, 3000 kb/s, 30 fps, 1k tbn (default)\n    Metadata:\n      encoder         : Lavc62.11.100 libsvtav1\n      handler_name    : VideoHandler\n      vendor_id       : [0][0][0][0]\n    Side data:\n      cpb: bitrate max/min/avg: 0/0/3000000 buffer size: 3000000 vbv_delay: N/A\nframe=    0 fps=0.0 q=0.0 size=       0KiB time=N/A bitrate=N/A speed=N/A elapsed=0:00:01.64    \nframe=    0 fps=0.0 q=0.0 size=       0KiB time=N/A bitrate=N/A speed=N/A elapsed=0:00:02.17    \nframe=    0 fps=0.0 q=0.0 size=       0KiB time=N/A bitrate=N/A speed=N/A elapsed=0:00:02.81    \nframe=    0 fps=0.0 q=0.0 size=       0KiB time=N/A bitrate=N/A speed=N/A elapsed=0:00:03.44    \nframe=    0 fps=0.0 q=0.0 size=       0KiB time=N/A bitrate=N/A speed=N/A elapsed=0:00:04.07    \nframe=    0 fps=0.0 q=0.0 size=       0KiB time=N/A bitrate=N/A speed=N/A elapsed=0:00:04.65    \nframe=    0 fps=0.0 q=0.0 size=       0KiB time=N/A bitrate=N/A speed=N/A elapsed=0:00:05.23    \nframe=    1 fps=0.2 q=43.0 size=       1KiB time=00:00:00.00 bitrate=N/A speed=   0x elapsed=0:00:05.79    \nframe=    1 fps=0.2 q=43.0 size=       1KiB time=00:00:00.00 bitrate=N/A speed=   0x elapsed=0:00:06.33    \nframe=    1 fps=0.1 q=43.0 size=       1KiB time=00:00:00.00 bitrate=N/A speed=   0x elapsed=0:00:06.89    \nframe=    3 fps=0.4 q=56.0 size=       1KiB time=00:00:00.06 bitrate=  85.6kbits/s speed=0.00896x elapsed=0:00:07.43    \nframe=    5 fps=0.6 q=55.0 size=       1KiB time=00:00:00.13 bitrate=  42.8kbits/s speed=0.0167x elapsed=0:00:08.00    \nframe=    6 fps=0.7 q=55.0 size=       1KiB time=00:00:00.16 bitrate=  34.2kbits/s speed=0.0195x elapsed=0:00:08.53    \nframe=    7 fps=0.8 q=55.0 size=       1KiB time=00:00:00.20 bitrate=  28.5kbits/s speed=0.0221x elapsed=0:00:09.06    \nframe=   10 fps=1.0 q=56.0 size=       1KiB time=00:00:00.30 bitrate=  19.0kbits/s speed=0.0303x elapsed=0:00:09.91    \nframe=   13 fps=1.2 q=53.0 size=       1KiB time=00:00:00.36 bitrate=  15.6kbits/s speed=0.0342x elapsed=0:00:10.73    \nframe=   16 fps=1.4 q=57.0 size=       1KiB time=00:00:00.50 bitrate=  11.4kbits/s speed=0.043x elapsed=0:00:11.62    \nframe=   17 fps=1.4 q=48.0 size=       1KiB time=00:00:00.53 bitrate=  10.7kbits/s speed=0.0434x elapsed=0:00:12.27    \nframe=   19 fps=1.5 q=56.0 size=       1KiB time=00:00:00.60 bitrate=   9.5kbits/s speed=0.0463x elapsed=0:00:12.96    \nframe=   22 fps=1.6 q=58.0 size=       1KiB time=00:00:00.66 bitrate=   8.6kbits/s speed=0.0483x elapsed=0:00:13.79    \nframe=   23 fps=1.6 q=56.0 size=       1KiB time=00:00:00.73 bitrate=   7.8kbits/s speed=0.0507x elapsed=0:00:14.46    \nframe=   24 fps=1.6 q=58.0 size=       1KiB time=00:00:00.73 bitrate=   7.8kbits/s speed=0.0488x elapsed=0:00:15.04    \nframe=   27 fps=1.7 q=56.0 size=       1KiB time=00:00:00.83 bitrate=   6.8kbits/s speed=0.0529x elapsed=0:00:15.74    \nframe=   30 fps=1.8 q=59.0 size=       1KiB time=00:00:00.93 bitrate=   6.1kbits/s speed=0.0571x elapsed=0:00:16.33    \nframe=   32 fps=1.9 q=59.0 size=       1KiB time=00:00:01.03 bitrate=   5.5kbits/s speed=0.0609x elapsed=0:00:16.96    \nframe=   34 fps=1.9 q=59.0 size=       1KiB time=00:00:01.10 bitrate=   5.2kbits/s speed=0.0628x elapsed=0:00:17.51    \nframe=   37 fps=2.0 q=56.0 size=       1KiB time=00:00:01.20 bitrate=   4.8kbits/s speed=0.0664x elapsed=0:00:18.06    \nframe=   39 fps=2.1 q=58.0 size=       1KiB time=00:00:01.26 bitrate=   4.5kbits/s speed=0.0681x elapsed=0:00:18.59    \nframe=   42 fps=2.2 q=60.0 size=       1KiB time=00:00:01.36 bitrate=   4.2kbits/s speed=0.0714x elapsed=0:00:19.14    \nframe=   46 fps=2.3 q=61.0 size=       1KiB time=00:00:01.50 bitrate=   3.8kbits/s speed=0.0754x elapsed=0:00:19.88    \nframe=   51 fps=2.5 q=59.0 size=       1KiB time=00:00:01.63 bitrate=   3.5kbits/s speed=0.0798x elapsed=0:00:20.45    \nframe=   55 fps=2.6 q=59.0 size=       1KiB time=00:00:01.80 bitrate=   3.2kbits/s speed=0.0853x elapsed=0:00:21.09    \nframe=   57 fps=2.6 q=54.0 size=       1KiB time=00:00:01.86 bitrate=   3.1kbits/s speed=0.0857x elapsed=0:00:21.77    \nframe=   59 fps=2.6 q=58.0 size=       1KiB time=00:00:01.93 bitrate=   3.0kbits/s speed=0.0866x elapsed=0:00:22.32    \nframe=   63 fps=2.8 q=58.0 size=       1KiB time=00:00:02.00 bitrate=   2.9kbits/s speed=0.0873x elapsed=0:00:22.89    \nframe=   67 fps=2.8 q=59.0 size=       1KiB time=00:00:02.13 bitrate=   2.7kbits/s speed=0.0906x elapsed=0:00:23.53    \nframe=   71 fps=2.9 q=59.0 size=       1KiB time=00:00:02.33 bitrate=   2.4kbits/s speed=0.0968x elapsed=0:00:24.11    \nframe=   73 fps=3.0 q=56.0 size=       1KiB time=00:00:02.40 bitrate=   2.4kbits/s speed=0.0974x elapsed=0:00:24.65    \nframe=   77 fps=3.1 q=57.0 size=       1KiB time=00:00:02.53 bitrate=   2.3kbits/s speed=0.101x elapsed=0:00:25.18    \nframe=   81 fps=3.1 q=51.0 size=       1KiB time=00:00:02.66 bitrate=   2.1kbits/s speed=0.104x elapsed=0:00:25.74    \nframe=   85 fps=3.2 q=56.0 size=       1KiB time=00:00:02.80 bitrate=   2.0kbits/s speed=0.106x elapsed=0:00:26.31    \nframe=   89 fps=3.3 q=57.0 size=       1KiB time=00:00:02.93 bitrate=   1.9kbits/s speed=0.109x elapsed=0:00:26.84    \nframe=   89 fps=3.2 q=57.0 size=       1KiB time=00:00:02.93 bitrate=   1.9kbits/s speed=0.107x elapsed=0:00:27.42    \nframe=   93 fps=3.3 q=56.0 size=       1KiB time=00:00:03.06 bitrate=   1.9kbits/s speed=0.109x elapsed=0:00:28.07    \nframe=   99 fps=3.5 q=58.0 size=       1KiB time=00:00:03.20 bitrate=   1.8kbits/s speed=0.112x elapsed=0:00:28.68    \nframe=  101 fps=3.5 q=56.0 size=       1KiB time=00:00:03.33 bitrate=   1.7kbits/s speed=0.114x elapsed=0:00:29.25    \nframe=  105 fps=3.5 q=56.0 size=       1KiB time=00:00:03.46 bitrate=   1.6kbits/s speed=0.116x elapsed=0:00:29.81    \nframe=  107 fps=3.5 q=58.0 size=       1KiB time=00:00:03.53 bitrate=   1.6kbits/s speed=0.116x elapsed=0:00:30.36    \nframe=  109 fps=3.5 q=56.0 size=       1KiB time=00:00:03.60 bitrate=   1.6kbits/s speed=0.117x elapsed=0:00:30.88    \nframe=  115 fps=3.7 q=58.0 size=       1KiB time=00:00:03.80 bitrate=   1.5kbits/s speed=0.121x elapsed=0:00:31.45    \nframe=  119 fps=3.7 q=58.0 size=       1KiB time=00:00:03.93 bitrate=   1.5kbits/s speed=0.123x elapsed=0:00:31.97    \nframe=  121 fps=3.7 q=56.0 size=       1KiB time=00:00:04.00 bitrate=   1.4kbits/s speed=0.123x elapsed=0:00:32.57    \nframe=  125 fps=3.8 q=57.0 size=       1KiB time=00:00:04.06 bitrate=   1.4kbits/s speed=0.123x elapsed=0:00:33.11    \nframe=  129 fps=3.8 q=52.0 size=       1KiB time=00:00:04.26 bitrate=   1.3kbits/s speed=0.126x elapsed=0:00:33.78    \nframe=  133 fps=3.9 q=59.0 size=       1KiB time=00:00:04.40 bitrate=   1.3kbits/s speed=0.128x elapsed=0:00:34.34    \nframe=  137 fps=3.9 q=57.0 size=       1KiB time=00:00:04.53 bitrate=   1.3kbits/s speed=0.13x elapsed=0:00:34.85    \nframe=  141 fps=4.0 q=59.0 size=       1KiB time=00:00:04.60 bitrate=   1.2kbits/s speed=0.13x elapsed=0:00:35.37    \n[out#0/matroska @ 000002abd66d9700] video:1948KiB audio:0KiB subtitle:0KiB other streams:0KiB global headers:0KiB muxing overhead: 0.073696%\nframe=  150 fps=4.2 q=59.0 Lsize=    1949KiB time=00:00:04.96 bitrate=3215.3kbits/s speed=0.139x elapsed=0:00:35.81    \n",
  "seconds": 36.508947134017944,
  "probe_out": {}
}